<?xml version="1.0" standalone="no"?>
<!DOCTYPE svg PUBLIC "-//W3C//DTD SVG 20010904//EN"
 "http://www.w3.org/TR/2001/REC-SVG-20010904/DTD/svg10.dtd">
<svg version="1.0" xmlns="http://www.w3.org/2000/svg"
 width="160.000000pt" height="160.000000pt" viewBox="0 0 160.000000 160.000000"
 preserveAspectRatio="xMidYMid meet">
<metadata>
Created by potrace 1.11, written by Peter Selinger 2001-2013
</metadata>
<g transform="translate(0.000000,160.000000) scale(0.100000,-0.100000)"
fill="#000000" stroke="none">
<path d="M690 1564 c-85 -17 -184 -50 -254 -86 -113 -58 -254 -200 -313 -313
-59 -115 -84 -203 -90 -320 -20 -365 218 -691 574 -787 108 -28 278 -28 386 0
221 60 414 221 506 424 50 110 65 181 65 318 1 149 -14 214 -78 345 -96 193
-267 335 -478 396 -71 20 -261 34 -318 23z m335 -78 c113 -38 209 -98 290
-181 135 -137 195 -280 202 -480 6 -140 -9 -217 -61 -328 -93 -200 -273 -346
-493 -398 -72 -17 -108 -20 -198 -16 -122 6 -187 22 -288 73 -192 96 -335 274
-383 479 -23 98 -15 294 16 385 82 241 266 414 511 480 111 30 294 24 404 -14z"/>
<path d="M1260 1090 c-132 -32 -290 -63 -445 -89 -280 -47 -393 -89 -477 -178
-42 -46 -78 -101 -78 -120 0 -4 25 17 56 47 31 30 55 48 52 40 -18 -54 -39
-133 -35 -136 2 -3 32 33 65 80 62 85 122 134 189 157 19 6 36 9 38 7 2 -1 -8
-36 -21 -75 -23 -68 -23 -75 -10 -108 9 -20 30 -56 47 -80 18 -25 29 -50 26
-59 -9 -23 9 -25 281 -29 l242 -4 0 71 c0 113 23 187 134 449 16 37 16 37 -6
36 -13 -1 -39 -5 -58 -9z m-115 -240 c0 -85 -3 -102 -32 -161 -28 -62 -34 -68
-79 -83 -84 -29 -86 -27 -48 67 50 123 46 166 -25 240 l-36 38 110 -3 110 -3
0 -95z m-195 -82 c15 -64 16 -76 3 -101 -28 -55 -142 -83 -218 -54 -88 34
-123 99 -95 173 l11 27 28 -45 c34 -54 76 -88 107 -88 33 0 97 67 119 124 10
25 20 44 23 42 3 -3 13 -38 22 -78z"/>
</g>
</svg>
